<svg width="128" height="128" viewBox="0 0 128 128" fill="none" xmlns="http://www.w3.org/2000/svg">
<rect width="128" height="128" rx="22" fill="#363D69"/>
<rect x="42" y="79.983" width="10.9831" height="10.9831" fill="#29213B"/>
<rect x="42" y="90.9661" width="10.9831" height="10.0678" fill="#29213B"/>
<rect x="42" y="101.034" width="10.9831" height="10.9831" fill="#29213B"/>
<rect x="52.9831" y="112.017" width="10.9831" height="10.9831" fill="#29213B"/>
<rect x="63.9661" y="101.034" width="10.0678" height="10.9831" fill="#29213B"/>
<rect x="63.9661" y="90.9661" width="10.0678" height="10.0678" fill="#29213B"/>
<rect x="74.0339" y="112.017" width="10.9831" height="10.9831" fill="#29213B"/>
<rect x="85.0169" y="101.034" width="10.9831" height="10.9831" fill="#29213B"/>
<rect x="85.0169" y="90.9661" width="10.9831" height="10.0678" fill="#29213B"/>
<rect x="85.0169" y="79.983" width="10.9831" height="10.9831" fill="#29213B"/>
<rect x="74.0339" y="69" width="10.9831" height="10.9831" fill="#29213B"/>
<rect x="52.9831" y="69" width="10.9831" height="10.9831" fill="#29213B"/>
<rect x="63.9661" y="36.9661" width="10.0678" height="10.0678" fill="#29213B"/>
<rect x="63.9661" y="25.9831" width="10.0678" height="10.9831" fill="#29213B"/>
<rect x="74.0339" y="36.9661" width="10.9831" height="10.0678" fill="#29213B"/>
<rect x="85.0169" y="36.9661" width="10.9831" height="10.0678" fill="#29213B"/>
<rect x="52.9831" y="36.9661" width="10.9831" height="10.0678" fill="#29213B"/>
<rect x="42" y="36.9661" width="10.9831" height="10.0678" fill="#29213B"/>
<rect x="85" y="15" width="10.9831" height="10.9831" fill="#29213B"/>
<rect x="42" y="15" width="10.9831" height="10.9831" fill="#29213B"/>
<rect x="63.9661" y="47.0339" width="10.0678" height="10.9831" fill="#29213B"/>
<rect x="37" y="74.983" width="10.9831" height="10.9831" fill="#FFF9B6"/>
<rect x="37" y="85.9661" width="10.9831" height="10.0678" fill="#FFF9B6"/>
<rect x="37" y="96.0339" width="10.9831" height="10.9831" fill="#FFF9B6"/>
<rect x="47.9831" y="107.017" width="10.9831" height="10.9831" fill="#FFF9B6"/>
<rect x="58.9661" y="96.0339" width="10.0678" height="10.9831" fill="#FFF9B6"/>
<rect x="58.9661" y="85.9661" width="10.0678" height="10.0678" fill="#FFF9B6"/>
<rect x="69.0339" y="107.017" width="10.9831" height="10.9831" fill="#FFF9B6"/>
<rect x="80.0169" y="96.0339" width="10.9831" height="10.9831" fill="#FFF9B6"/>
<rect x="80.0169" y="85.9661" width="10.9831" height="10.0678" fill="#FFF9B6"/>
<rect x="80.0169" y="74.983" width="10.9831" height="10.9831" fill="#FFF9B6"/>
<rect x="69.0339" y="64" width="10.9831" height="10.9831" fill="#FFF9B6"/>
<rect x="47.9831" y="64" width="10.9831" height="10.9831" fill="#FFF9B6"/>
<rect x="58.9661" y="31.9661" width="10.0678" height="10.0678" fill="#FFF9B6"/>
<rect x="58.9661" y="20.9831" width="10.0678" height="10.9831" fill="#FFF9B6"/>
<rect x="69.0339" y="31.9661" width="10.9831" height="10.0678" fill="#FFF9B6"/>
<rect x="80.0169" y="31.9661" width="10.9831" height="10.0678" fill="#FFF9B6"/>
<rect x="47.9831" y="31.9661" width="10.9831" height="10.0678" fill="#FFF9B6"/>
<rect x="37" y="31.9661" width="10.9831" height="10.0678" fill="#FFF9B6"/>
<rect x="80" y="10" width="10.9831" height="10.9831" fill="#FFF9B6"/>
<rect x="37" y="10" width="10.9831" height="10.9831" fill="#FFF9B6"/>
<rect x="58.9661" y="42.0339" width="10.0678" height="10.9831" fill="#FFF9B6"/>
</svg>
